 <svg version="1.0" xmlns="http://www.w3.org/2000/svg" width="700.000000pt" height="700.000000pt" viewBox="0 0 700.000000 700.000000" preserveAspectRatio="xMidYMid meet">
<metadata>
Created by potrace 1.12, written by Peter Selinger 2001-2015
</metadata>
<g transform="translate(0.000000,700.000000) scale(0.100000,-0.100000)" fill="#000000" stroke="none">
<path d="M3280 6994 c-19 -2 -84 -9 -145 -14 -638 -61 -1255 -310 -1795 -726
-148 -114 -479 -445 -594 -594 -413 -534 -649 -1115 -728 -1795 -17 -143 -17
-598 0 -735 84 -687 316 -1258 728 -1790 114 -149 445 -480 594 -594 533 -413
1116 -649 1795 -728 143 -17 598 -17 735 0 689 85 1252 313 1790 728 148 114
479 445 594 594 412 533 643 1102 728 1790 17 138 17 602 0 740 -85 687 -317
1258 -728 1790 -115 149 -446 480 -594 594 -527 406 -1078 634 -1745 722 -104
14 -561 27 -635 18z m-1302 -1066 c9 -9 12 -89 12 -297 l0 -286 168 168 c165
165 201 190 216 151 3 -8 2 -23 -3 -32 -6 -9 -93 -100 -195 -202 l-186 -185 0
-670 0 -670 408 408 c224 224 414 407 423 407 26 0 42 -26 30 -47 -5 -10 -201
-209 -435 -443 l-426 -425 0 -590 0 -590 614 613 c513 514 617 613 637 610 62
-8 45 -28 -611 -683 l-640 -640 0 -470 0 -470 433 433 c315 314 438 431 449
427 47 -18 32 -36 -427 -495 l-455 -455 0 -237 c0 -224 -1 -238 -19 -248 -15
-7 -23 -6 -35 6 -14 13 -16 50 -16 247 l0 232 -740 740 c-748 747 -771 773
-716 783 14 3 208 -185 737 -714 l719 -719 0 470 0 470 -640 640 c-352 352
-640 647 -640 655 0 18 19 40 34 40 6 0 289 -278 628 -617 l618 -618 0 395 0
395 -455 455 c-250 250 -455 462 -455 471 0 26 25 42 47 30 10 -5 208 -200
441 -433 l422 -424 0 581 0 580 -356 356 c-327 327 -355 358 -345 378 7 11 19
21 29 21 9 0 164 -147 344 -327 l328 -328 0 571 c0 577 1 594 35 594 6 0 16
-5 23 -12z m3556 -8 c72 -27 139 -88 173 -158 l28 -57 0 -2225 c0 -2164 -1
-2226 -19 -2274 -22 -58 -83 -128 -140 -161 -74 -43 -132 -46 -776 -43 -534 3
-610 5 -648 20 -95 36 -164 107 -196 201 -15 43 -16 245 -16 2246 0 2426 -5
2254 63 2343 36 48 112 103 161 117 17 5 320 10 673 10 622 1 644 0 697 -19z"></path>
<path d="M4210 5871 c-54 -11 -116 -47 -144 -84 -56 -73 -56 -76 -56 -482 l0
-375 341 -2 c317 -3 343 -4 353 -21 9 -15 7 -21 -9 -33 -16 -12 -72 -14 -352
-12 l-333 3 0 -825 0 -825 213 3 c175 2 216 0 232 -12 16 -12 18 -18 9 -33
-10 -16 -31 -18 -233 -21 l-221 -2 0 -650 0 -650 519 0 c449 0 520 -2 531 -15
10 -12 10 -18 0 -30 -11 -13 -82 -15 -531 -15 l-519 0 0 -265 c0 -203 3 -273
14 -299 19 -46 72 -104 120 -129 41 -22 41 -22 696 -22 655 0 655 0 696 22 22
12 55 38 72 58 64 72 62 53 62 666 l0 559 -176 2 c-152 3 -178 5 -187 20 -8
12 -7 21 2 32 11 14 41 16 187 16 l174 0 0 765 0 765 -524 0 c-552 0 -557 0
-540 44 6 14 56 16 535 16 l529 0 0 595 0 595 -262 2 -263 3 0 25 0 25 263 3
263 2 -3 208 -3 209 -30 49 c-37 59 -113 108 -181 118 -63 8 -1200 6 -1244 -3z"></path>
</g>
</svg>